<svg xmlns="http://www.w3.org/2000/svg" viewBox="0 0 128 128" version="1.1">
    <g style="" transform="matrix(-0.560791, 0, 0, 0.47369, 139.784958, 0.000003)">
        <path
            d="M 70.215 1.94 C 66.758 2.928 61.081 5.182 57.6 6.949 C 54.12 8.716 48.569 12.348 45.265 15.021 C 41.961 17.695 37.18 22.647 34.64 26.026 C 32.099 29.406 28.678 34.984 27.037 38.423 C 25.395 41.863 23.372 47.562 22.541 51.088 C 21.71 54.615 21.023 61.865 21.015 67.201 C 21.007 72.536 21.501 79.286 22.113 82.201 C 22.725 85.115 24.693 90.702 26.486 94.617 C 28.279 98.531 30.863 103.377 32.229 105.386 C 33.594 107.395 36.55 111 38.797 113.399 C 41.045 115.797 44.434 119.051 46.327 120.629 L 49.771 123.5 L 46.914 130.5 C 45.343 134.35 43.079 141.775 41.883 147 L 39.709 156.5 L 31.279 162.5 C 26.642 165.8 22.439 168.989 21.938 169.587 L 21.026 170.673 L 30.763 177.741 L 40.5 184.809 L 42.387 192.908 C 43.425 197.363 45.705 204.298 47.453 208.32 C 49.201 212.341 52.376 218.504 54.509 222.015 C 56.641 225.525 61.014 231.45 64.225 235.181 C 67.436 238.913 73.17 244.475 76.967 247.543 C 80.764 250.611 87.363 255.111 91.631 257.543 C 95.898 259.975 103.465 263.3 108.445 264.931 C 113.425 266.562 120.265 268.419 123.644 269.057 L 129.788 270.219 L 145.144 269.746 L 160.5 269.274 L 166.5 267.586 C 169.8 266.658 176.22 264.383 180.768 262.53 C 185.315 260.677 192.874 256.607 197.565 253.485 C 202.256 250.364 209.125 244.815 212.829 241.155 C 216.533 237.495 221.64 231.575 224.179 228 C 226.717 224.425 230.596 217.9 232.798 213.5 C 235 209.1 237.717 202.35 238.835 198.5 C 239.954 194.65 241.349 188.83 241.935 185.566 C 242.521 182.303 243 174.549 243 168.337 C 243 162.009 242.304 153.586 241.417 149.186 L 239.835 141.332 L 242.442 137.49 C 243.876 135.377 245.998 130.526 247.157 126.71 L 249.264 119.771 L 248.76 110.92 L 248.255 102.07 L 244.741 94.67 L 241.227 87.271 L 235.825 81.885 C 232.854 78.923 227.853 75.209 224.712 73.631 L 219 70.762 L 219 66.339 C 219 63.906 218.312 58.447 217.472 54.208 C 216.556 49.589 214.085 42.693 211.307 37 L 206.669 27.5 L 198.582 19.5 L 190.494 11.5 L 181.997 7.252 C 177.324 4.916 170.818 2.328 167.54 1.502 C 164.05 0.623 157.064 0 150.684 0 C 144.246 0 137.424 0.613 134.008 1.498 C 130.829 2.322 126.313 3.853 123.972 4.901 L 119.715 6.807 L 115.31 4.918 C 112.886 3.88 108.273 2.348 105.058 1.515 L 99.211 0 L 87.856 0.071 L 76.5 0.142 L 70.215 1.94 M 80.992 9.94 C 77.963 10.35 73.688 11.267 71.492 11.979 C 69.297 12.691 65.25 14.391 62.5 15.758 C 59.75 17.125 55.233 20.083 52.462 22.333 C 49.691 24.583 45.583 28.691 43.333 31.462 C 41.083 34.233 38.096 38.782 36.695 41.571 C 35.294 44.361 33.439 49.376 32.574 52.716 C 31.708 56.056 31.005 62.774 31.012 67.644 C 31.018 72.515 31.677 78.955 32.475 81.955 C 33.274 84.955 35.363 90.355 37.118 93.955 L 40.308 100.5 L 47.963 108.093 L 55.618 115.687 L 62.059 118.822 C 65.602 120.546 71.182 122.641 74.46 123.478 C 77.738 124.315 84.171 125 88.755 125 C 93.338 125 99.912 124.291 103.361 123.424 C 106.811 122.558 111.404 120.858 113.567 119.646 L 117.5 117.443 L 118.132 109.971 C 118.48 105.862 119.574 100.475 120.562 98 C 121.551 95.525 123.419 91.797 124.714 89.716 C 126.009 87.634 128.938 84.117 131.222 81.9 C 133.506 79.683 137.879 76.395 140.938 74.593 L 146.5 71.316 L 146.228 64.408 C 146.078 60.608 145.25 55.025 144.388 52 C 143.526 48.975 141.233 43.468 139.293 39.762 C 137.231 35.823 133.109 30.368 129.37 26.63 C 125.632 22.891 120.177 18.769 116.238 16.707 C 112.532 14.767 107.025 12.494 104 11.656 C 100.975 10.819 95.8 9.922 92.5 9.664 C 89.2 9.406 84.022 9.53 80.992 9.94 M 142.547 10.086 C 139.273 10.577 135.111 11.468 133.297 12.067 C 131.484 12.665 130 13.279 130 13.43 C 130 13.581 133.081 16.885 136.847 20.772 L 143.694 27.839 L 147.733 35.67 C 149.954 39.976 152.488 46.008 153.363 49.073 C 154.237 52.139 155.248 57.816 155.608 61.69 L 156.262 68.732 L 163.881 69.262 C 168.072 69.553 174.088 70.704 177.25 71.82 L 183 73.849 L 188.748 71.828 C 191.909 70.717 197.759 69.561 201.748 69.26 L 209 68.711 L 208.983 65.606 C 208.973 63.898 208.304 59.35 207.496 55.5 C 206.687 51.65 204.46 45.35 202.546 41.5 C 200.632 37.65 197.188 32.33 194.894 29.678 C 192.599 27.027 187.557 22.634 183.689 19.917 L 176.655 14.978 L 169.078 12.609 C 164.91 11.306 158.575 10.005 155 9.716 C 151.425 9.428 145.821 9.594 142.547 10.086 M 153.618 76.112 C 151.482 76.614 147.063 78.448 143.797 80.189 C 140.531 81.93 136.027 85.412 133.789 87.927 C 131.551 90.442 128.57 94.975 127.163 98 L 124.607 103.5 L 124.23 112 L 123.853 120.5 L 125.917 126.378 C 127.052 129.611 129.667 134.468 131.727 137.17 C 133.788 139.872 137.73 143.612 140.487 145.481 C 143.244 147.349 147.847 149.627 150.716 150.543 L 155.932 152.208 L 164.216 151.833 L 172.5 151.459 L 178.218 148.799 C 181.363 147.337 186.212 144.011 188.994 141.409 L 194.051 136.678 L 197.258 130.089 L 200.464 123.5 L 200.482 114 L 200.5 104.5 L 197.326 97.799 C 195.58 94.114 192.132 89.079 189.663 86.61 C 187.195 84.142 182.998 81.026 180.338 79.686 C 177.677 78.345 173.115 76.743 170.201 76.124 C 167.286 75.506 163.236 75.045 161.201 75.1 C 159.165 75.156 155.753 75.611 153.618 76.112 M 196.358 75.954 C 194.63 76.366 192.449 76.997 191.512 77.357 L 189.809 78.011 L 195.068 83.755 C 197.961 86.915 201.424 91.888 202.763 94.807 C 204.103 97.726 205.695 103.008 206.3 106.545 L 207.402 112.975 L 206.333 120.237 C 205.745 124.232 204.058 130.022 202.584 133.104 C 201.11 136.187 197.672 141.213 194.943 144.274 L 189.983 149.839 L 193.61 151.036 C 195.789 151.755 200.715 152.067 205.949 151.817 L 214.662 151.4 L 220.568 148.51 C 223.817 146.921 228.646 143.45 231.299 140.796 C 233.953 138.143 237.333 133.39 238.812 130.236 L 241.5 124.5 L 241.496 113.5 L 241.493 102.5 L 238.684 97.16 C 237.139 94.223 234.064 89.855 231.851 87.454 C 229.638 85.053 225.882 81.949 223.504 80.555 C 221.126 79.162 216.571 77.342 213.38 76.511 C 210.19 75.68 205.762 75.046 203.54 75.102 C 201.318 75.159 198.086 75.542 196.358 75.954 M 175.923 106.923 L 173 109.846 L 173 113.701 C 173 115.82 173.734 118.603 174.631 119.883 C 175.528 121.164 177.717 122.819 179.495 123.562 L 182.729 124.914 L 186.417 123.895 L 190.104 122.877 L 192.048 119.689 C 193.118 117.935 193.994 115.465 193.996 114.2 C 193.998 112.936 193.32 110.586 192.49 108.98 C 191.659 107.374 190.114 105.596 189.055 105.03 C 187.997 104.463 185.267 104 182.989 104 L 178.846 104 L 175.923 106.923 M 217.735 106.537 C 216.34 107.933 214.909 110.228 214.555 111.638 C 214.201 113.048 214.404 115.694 215.006 117.519 C 215.608 119.343 217.091 121.474 218.301 122.254 C 219.51 123.033 221.583 123.947 222.908 124.283 C 224.232 124.62 226.76 124.291 228.527 123.553 C 230.293 122.815 232.472 121.164 233.369 119.883 C 234.266 118.603 235 115.82 235 113.701 L 235 109.846 L 232.077 106.923 L 229.154 104 L 224.713 104 L 220.273 104 L 217.735 106.537 M 117.242 190.227 L 117.5 252.453 L 123 253.804 C 126.13 254.572 134.102 255.17 141.5 255.191 L 154.5 255.229 L 162.5 253.109 C 166.9 251.943 174.55 249.038 179.5 246.654 C 184.45 244.27 191.89 239.589 196.034 236.252 C 200.178 232.915 206.161 226.931 209.329 222.955 C 212.497 218.978 217.079 211.624 219.51 206.612 C 221.942 201.6 224.844 193.675 225.959 189 L 227.986 180.5 L 227.978 168 C 227.973 161.125 227.602 154.921 227.153 154.213 L 226.337 152.927 L 221.572 154.969 C 218.951 156.093 213.744 157.487 210.001 158.068 L 203.196 159.124 L 196.934 157.988 C 193.49 157.363 188.946 156.162 186.836 155.318 L 183 153.783 L 179.164 155.318 C 177.054 156.162 172.51 157.363 169.066 157.988 L 162.804 159.124 L 155.835 158.042 C 151.931 157.437 146.186 155.608 142.772 153.885 C 139.42 152.193 134.305 148.565 131.406 145.822 C 128.442 143.019 124.681 138.027 122.817 134.422 C 120.992 130.894 118.934 128.006 118.242 128.004 L 116.985 128 L 117.242 190.227 M 88.741 134.743 L 80.981 135.084 L 81.241 183.712 L 81.5 232.339 L 88.491 237.669 C 92.336 240.601 95.823 243 96.241 243 C 96.658 243 97 218.475 97 188.5 C 97 158.525 96.888 134.091 96.75 134.201 C 96.612 134.312 93.008 134.556 88.741 134.743 M 59.887 137.75 C 59.302 139.262 57.915 143.875 56.805 148 L 54.786 155.5 L 54.733 168 L 54.68 180.5 L 56.897 189.636 C 58.116 194.661 59.748 199.611 60.525 200.636 L 61.936 202.5 L 61.968 168.75 C 61.986 150.188 61.764 135 61.475 135 C 61.187 135 60.472 136.238 59.887 137.75 M 151.419 178.25 C 151.79 180.588 153.136 184.75 154.41 187.5 C 155.683 190.25 158.475 194.232 160.613 196.348 C 162.751 198.464 166.075 201 168 201.982 C 169.925 202.965 173.978 204.28 177.006 204.905 L 182.513 206.041 L 187.739 205.049 C 190.613 204.504 194.792 203.127 197.024 201.988 C 199.257 200.849 202.91 198.09 205.142 195.858 C 207.375 193.625 210.059 189.859 211.108 187.49 C 212.156 185.12 213.297 181.115 213.643 178.591 L 214.272 174 L 209.136 174 L 204 174 L 204 177.04 C 204 178.712 203.113 181.818 202.029 183.943 C 200.945 186.068 198.422 189.155 196.423 190.803 C 194.423 192.451 190.812 194.353 188.399 195.028 C 185.898 195.728 182.247 195.975 179.913 195.602 C 177.66 195.242 174.052 194.047 171.895 192.946 C 169.738 191.846 166.651 189.121 165.035 186.89 C 163.416 184.655 161.8 180.852 161.435 178.417 L 160.773 174 L 155.759 174 L 150.744 174 L 151.419 178.25"
            stroke="none" fill="#0d0c06" fill-rule="evenodd"></path>
        <path
            d="M 80.992 9.94 C 77.963 10.35 73.688 11.267 71.492 11.979 C 69.297 12.691 65.25 14.391 62.5 15.758 C 59.75 17.125 55.233 20.083 52.462 22.333 C 49.691 24.583 45.583 28.691 43.333 31.462 C 41.083 34.233 38.096 38.782 36.695 41.571 C 35.294 44.361 33.439 49.376 32.574 52.716 C 31.708 56.056 31.005 62.774 31.012 67.644 C 31.018 72.515 31.677 78.955 32.475 81.955 C 33.274 84.955 35.363 90.355 37.118 93.955 L 40.308 100.5 L 47.963 108.093 L 55.618 115.687 L 62.059 118.822 C 65.602 120.546 71.182 122.641 74.46 123.478 C 77.738 124.315 84.171 125 88.755 125 C 93.338 125 99.912 124.291 103.361 123.424 C 106.811 122.558 111.404 120.858 113.567 119.646 L 117.5 117.443 L 118.132 109.971 C 118.48 105.862 119.574 100.475 120.562 98 C 121.551 95.525 123.419 91.797 124.714 89.716 C 126.009 87.634 128.938 84.117 131.222 81.9 C 133.506 79.683 137.879 76.395 140.938 74.593 L 146.5 71.316 L 146.228 64.408 C 146.078 60.608 145.25 55.025 144.388 52 C 143.526 48.975 141.233 43.468 139.293 39.762 C 137.231 35.823 133.109 30.368 129.37 26.63 C 125.632 22.891 120.177 18.769 116.238 16.707 C 112.532 14.767 107.025 12.494 104 11.656 C 100.975 10.819 95.8 9.922 92.5 9.664 C 89.2 9.406 84.022 9.53 80.992 9.94 M 142.547 10.086 C 139.273 10.577 135.111 11.468 133.297 12.067 C 131.484 12.665 130 13.279 130 13.43 C 130 13.581 133.081 16.885 136.847 20.772 L 143.694 27.839 L 147.733 35.67 C 149.954 39.976 152.488 46.008 153.363 49.073 C 154.237 52.139 155.248 57.816 155.608 61.69 L 156.262 68.732 L 163.881 69.262 C 168.072 69.553 174.088 70.704 177.25 71.82 L 183 73.849 L 188.748 71.828 C 191.909 70.717 197.759 69.561 201.748 69.26 L 209 68.711 L 208.983 65.606 C 208.973 63.898 208.304 59.35 207.496 55.5 C 206.687 51.65 204.46 45.35 202.546 41.5 C 200.632 37.65 197.188 32.33 194.894 29.678 C 192.599 27.027 187.557 22.634 183.689 19.917 L 176.655 14.978 L 169.078 12.609 C 164.91 11.306 158.575 10.005 155 9.716 C 151.425 9.428 145.821 9.594 142.547 10.086 M 153.618 76.112 C 151.482 76.614 147.063 78.448 143.797 80.189 C 140.531 81.93 136.027 85.412 133.789 87.927 C 131.551 90.442 128.57 94.975 127.163 98 L 124.607 103.5 L 124.23 112 L 123.853 120.5 L 125.917 126.378 C 127.052 129.611 129.667 134.468 131.727 137.17 C 133.788 139.872 137.73 143.612 140.487 145.481 C 143.244 147.349 147.847 149.627 150.716 150.543 L 155.932 152.208 L 164.216 151.833 L 172.5 151.459 L 178.218 148.799 C 181.363 147.337 186.212 144.011 188.994 141.409 L 194.051 136.678 L 197.258 130.089 L 200.464 123.5 L 200.482 114 L 200.5 104.5 L 197.326 97.799 C 195.58 94.114 192.132 89.079 189.663 86.61 C 187.195 84.142 182.998 81.026 180.338 79.686 C 177.677 78.345 173.115 76.743 170.201 76.124 C 167.286 75.506 163.236 75.045 161.201 75.1 C 159.165 75.156 155.753 75.611 153.618 76.112 M 196.358 75.954 C 194.63 76.366 192.449 76.997 191.512 77.357 L 189.809 78.011 L 195.068 83.755 C 197.961 86.915 201.424 91.888 202.763 94.807 C 204.103 97.726 205.695 103.008 206.3 106.545 L 207.402 112.975 L 206.333 120.237 C 205.745 124.232 204.058 130.022 202.584 133.104 C 201.11 136.187 197.672 141.213 194.943 144.274 L 189.983 149.839 L 193.61 151.036 C 195.789 151.755 200.715 152.067 205.949 151.817 L 214.662 151.4 L 220.568 148.51 C 223.817 146.921 228.646 143.45 231.299 140.796 C 233.953 138.143 237.333 133.39 238.812 130.236 L 241.5 124.5 L 241.496 113.5 L 241.493 102.5 L 238.684 97.16 C 237.139 94.223 234.064 89.855 231.851 87.454 C 229.638 85.053 225.882 81.949 223.504 80.555 C 221.126 79.162 216.571 77.342 213.38 76.511 C 210.19 75.68 205.762 75.046 203.54 75.102 C 201.318 75.159 198.086 75.542 196.358 75.954 M 175.923 106.923 L 173 109.846 L 173 113.701 C 173 115.82 173.734 118.603 174.631 119.883 C 175.528 121.164 177.717 122.819 179.495 123.562 L 182.729 124.914 L 186.417 123.895 L 190.104 122.877 L 192.048 119.689 C 193.118 117.935 193.994 115.465 193.996 114.2 C 193.998 112.936 193.32 110.586 192.49 108.98 C 191.659 107.374 190.114 105.596 189.055 105.03 C 187.997 104.463 185.267 104 182.989 104 L 178.846 104 L 175.923 106.923 M 217.735 106.537 C 216.34 107.933 214.909 110.228 214.555 111.638 C 214.201 113.048 214.404 115.694 215.006 117.519 C 215.608 119.343 217.091 121.474 218.301 122.254 C 219.51 123.033 221.583 123.947 222.908 124.283 C 224.232 124.62 226.76 124.291 228.527 123.553 C 230.293 122.815 232.472 121.164 233.369 119.883 C 234.266 118.603 235 115.82 235 113.701 L 235 109.846 L 232.077 106.923 L 229.154 104 L 224.713 104 L 220.273 104 L 217.735 106.537 M 117.242 190.227 L 117.5 252.453 L 123 253.804 C 126.13 254.572 134.102 255.17 141.5 255.191 L 154.5 255.229 L 162.5 253.109 C 166.9 251.943 174.55 249.038 179.5 246.654 C 184.45 244.27 191.89 239.589 196.034 236.252 C 200.178 232.915 206.161 226.931 209.329 222.955 C 212.497 218.978 217.079 211.624 219.51 206.612 C 221.942 201.6 224.844 193.675 225.959 189 L 227.986 180.5 L 227.978 168 C 227.973 161.125 227.602 154.921 227.153 154.213 L 226.337 152.927 L 221.572 154.969 C 218.951 156.093 213.744 157.487 210.001 158.068 L 203.196 159.124 L 196.934 157.988 C 193.49 157.363 188.946 156.162 186.836 155.318 L 183 153.783 L 179.164 155.318 C 177.054 156.162 172.51 157.363 169.066 157.988 L 162.804 159.124 L 155.835 158.042 C 151.931 157.437 146.186 155.608 142.772 153.885 C 139.42 152.193 134.305 148.565 131.406 145.822 C 128.442 143.019 124.681 138.027 122.817 134.422 C 120.992 130.894 118.934 128.006 118.242 128.004 L 116.985 128 L 117.242 190.227 M 88.741 134.743 L 80.981 135.084 L 81.241 183.712 L 81.5 232.339 L 88.491 237.669 C 92.336 240.601 95.823 243 96.241 243 C 96.658 243 97 218.475 97 188.5 C 97 158.525 96.888 134.091 96.75 134.201 C 96.612 134.312 93.008 134.556 88.741 134.743 M 59.887 137.75 C 59.302 139.262 57.915 143.875 56.805 148 L 54.786 155.5 L 54.733 168 L 54.68 180.5 L 56.897 189.636 C 58.116 194.661 59.748 199.611 60.525 200.636 L 61.936 202.5 L 61.968 168.75 C 61.986 150.188 61.764 135 61.475 135 C 61.187 135 60.472 136.238 59.887 137.75 M 151.419 178.25 C 151.79 180.588 153.136 184.75 154.41 187.5 C 155.683 190.25 158.475 194.232 160.613 196.348 C 162.751 198.464 166.075 201 168 201.982 C 169.925 202.965 173.978 204.28 177.006 204.905 L 182.513 206.041 L 187.739 205.049 C 190.613 204.504 194.792 203.127 197.024 201.988 C 199.257 200.849 202.91 198.09 205.142 195.858 C 207.375 193.625 210.059 189.859 211.108 187.49 C 212.156 185.12 213.297 181.115 213.643 178.591 L 214.272 174 L 209.136 174 L 204 174 L 204 177.04 C 204 178.712 203.113 181.818 202.029 183.943 C 200.945 186.068 198.422 189.155 196.423 190.803 C 194.423 192.451 190.812 194.353 188.399 195.028 C 185.898 195.728 182.247 195.975 179.913 195.602 C 177.66 195.242 174.052 194.047 171.895 192.946 C 169.738 191.846 166.651 189.121 165.035 186.89 C 163.416 184.655 161.8 180.852 161.435 178.417 L 160.773 174 L 155.759 174 L 150.744 174 L 151.419 178.25"
            stroke="none" fill="#8f979c" fill-rule="evenodd"></path>
    </g>
</svg>