<svg viewBox="0 0 1536 1948" xmlns="http://www.w3.org/2000/svg"><path d="M559 326v0l13 16c-237 68-346 172-346 172s29-16 78-38c141-62 252-79 298-83 8-1 15-3 23-3 80-11 170-13 265-2 125 14 259 51 396 126 0 0-103-99-327-167l18-21s181-4 370 138c0 0 189 343 189 766 0 0-111 191-402 200 0 0-48-56-87-106 172-49 238-157 238-157-54 35-105 61-151 78-66 28-129 45-191 56-126 24-242 17-341-1-75-14-139-36-193-57-30-12-63-26-96-44-4-3-8-4-12-7-3-1-4-3-5-4-24-13-37-22-37-22s63 105 230 155c-39 50-88 109-88 109-291-9-401-200-401-200 0-423 189-766 189-766 189-142 370-138 370-138z m-37 490v0c-75 0-134 66-134 146s60 146 134 146c75 0 134-66 134-146 1-80-59-146-134-146z m480 0v0c-75 0-134 66-134 146s60 146 134 146c75 0 134-66 134-146s-59-146-134-146z"/></svg>