<svg viewBox="0 0 1792 1948" xmlns="http://www.w3.org/2000/svg">
    <path fill="#fd4648"
        d="M1792 712v794c0 88-72 160-160 160h-1472c-88 0-160-72-160-160v-794c30 33 64 62 101 87 166 113 334 226 497 345 84 62 188 138 297 138h2c109 0 213-76 297-138 163-118 331-232 498-345 36-25 70-54 100-87z m0-294c0 112-83 213-171 274-156 108-313 216-468 325-65 45-175 137-256 137h-2c-81 0-191-92-256-137-155-109-312-217-467-325-71-48-172-161-172-252 0-98 53-182 160-182h1472c87 0 160 72 160 160z" />
</svg>
