<svg xmlns="http://www.w3.org/2000/svg" viewBox="0 0 250 220">
    <path
        d="M 7.672 213.358 C 7.294 211.983 6.701 207.03 6.353 202.351 C 5.388 189.343 7.197 185.947 21.858 173.248 L 33.455 163.204 L 34.603 170.626 C 35.234 174.708 36.245 178.971 36.849 180.101 C 37.847 181.966 37.287 182.541 30.717 186.391 C 18.883 193.326 13.071 200.029 10.029 210.247 C 8.561 215.182 8.277 215.557 7.672 213.358 M 140.05 214.146 C 139.896 209.974 135.502 201.035 131.321 196.384 C 128.813 193.595 123.618 189.446 119.777 187.164 C 112.129 182.62 111.284 181.54 112.948 178.431 C 113.561 177.285 114.336 173.424 114.67 169.852 C 115.003 166.281 115.466 163.358 115.698 163.358 C 115.93 163.358 121.207 167.853 127.425 173.346 C 141.77 186.02 143.564 189.452 142.641 202.457 C 142.089 210.226 140.218 218.67 140.05 214.146 M 118.987 196.667 C 115.227 196.038 106.645 193.218 105.329 192.179 C 104.493 191.52 104.853 190.583 106.624 188.812 C 107.974 187.462 109.316 186.358 109.608 186.358 C 110.681 186.358 123.916 194.567 125.054 195.939 C 126.018 197.1 125.8 197.333 123.859 197.222 C 122.555 197.147 120.362 196.897 118.987 196.667 M 247.987 194.554 C 247.987 192.497 243.158 184.54 240.67 182.495 C 239.757 181.746 234.843 179.413 229.749 177.312 C 220.56 173.522 218.985 172.024 222.111 170.051 C 224.5 168.545 243.443 179.62 246.581 184.358 C 249.222 188.345 250.914 196.358 249.115 196.358 C 248.495 196.358 247.987 195.546 247.987 194.554 M 56.7 191.988 C 50.185 190.165 45.037 185.822 41.67 179.308 L 38.853 173.858 L 39.259 156.358 C 39.683 138.101 40.684 133.255 46.536 121.133 L 48.334 117.408 L 53.156 122.437 C 61.366 130.999 71.733 134.027 82.31 130.952 C 86.681 129.682 89.434 127.936 94.416 123.275 L 100.865 117.243 L 102.562 119.831 C 103.495 121.255 105.406 125.444 106.81 129.139 C 109.132 135.254 109.398 137.517 109.773 154.307 C 110.243 175.361 109.664 178.49 104.178 184.58 C 97.973 191.469 93.831 192.737 76.487 193.053 C 66.231 193.241 59.973 192.904 56.7 191.988 M 144.68 186.304 C 142.258 181.101 140.043 178.679 128.568 168.69 L 115.264 157.109 L 114.712 147.484 C 114.078 136.432 110.642 124.323 106.163 117.358 C 101.507 110.118 89.073 98.764 84.201 97.304 C 81.883 96.61 79.987 95.633 79.987 95.134 C 79.987 94.636 82.454 91.761 85.469 88.746 C 91.024 83.191 99.075 78.705 105.304 77.694 C 108.586 77.161 108.71 77.264 109.328 81.001 C 109.678 83.122 109.97 86.995 109.976 89.608 C 109.985 93.639 110.281 94.358 111.928 94.358 C 112.996 94.358 114.067 94.021 114.309 93.608 C 114.551 93.196 114.231 85.041 113.597 75.487 C 112.356 56.789 112.459 56.201 117.302 54.403 C 123.649 52.047 137.535 54.426 137.467 57.858 C 137.375 62.485 135.8 85.852 135.327 89.608 C 134.746 94.222 134.805 94.358 137.358 94.358 C 139.783 94.358 139.988 94.028 139.994 90.108 C 139.998 87.77 140.293 82.767 140.65 78.989 L 141.298 72.121 L 152.393 72.836 C 162.844 73.51 173.857 74.895 174.589 75.627 C 174.77 75.808 175.225 80.321 175.6 85.657 C 176.191 94.065 176.521 95.358 178.076 95.358 C 179.062 95.358 180.067 95.02 180.309 94.608 C 180.551 94.196 180.228 85.996 179.59 76.386 C 178.52 60.262 178.563 58.782 180.153 57.192 C 183.797 53.548 198.554 53.38 201.902 56.945 C 203.593 58.746 203.624 59.886 202.42 76.358 C 201.709 86.074 201.521 94.251 201.996 94.741 C 203.703 96.5 205.987 94.463 205.987 91.181 L 205.987 87.942 L 210.613 92.4 C 221.158 102.563 226.072 113.616 228.008 131.528 C 229.331 143.764 228.391 150.617 224.269 158.774 C 221.128 164.99 212.837 173.309 206.987 176.115 C 203.61 177.735 150.198 192.407 147.894 192.348 C 147.67 192.342 146.224 189.622 144.68 186.304 M 53.987 181.636 C 50.485 180.321 46.809 176.93 44.964 173.314 C 39.953 163.49 45.211 152.15 56.127 149.239 C 60.108 148.178 61.399 148.244 65.226 149.705 C 67.679 150.642 70.72 152.51 71.985 153.856 L 74.285 156.304 L 77.623 153.373 C 86.107 145.924 98.455 147.728 103.775 157.195 C 109.674 167.69 103.242 180.786 91.54 182.105 C 85.405 182.796 82.573 181.883 77.972 177.725 C 74.667 174.739 73.902 174.415 73.38 175.777 C 72.251 178.717 64.689 182.365 59.899 182.279 C 57.472 182.236 54.812 181.946 53.987 181.636 M 52.885 176.075 C 49.006 173.469 46.312 167.185 47.332 163.121 C 49.859 153.051 62.849 149.652 69.338 157.363 C 72.953 161.659 73.482 165.451 71.191 170.631 C 67.933 177.995 59.484 180.508 52.885 176.075 M 84.405 177.389 C 83.261 176.926 81.123 175.12 79.655 173.376 C 77.567 170.893 76.987 169.151 76.987 165.352 C 76.987 155.349 87.205 149.864 96.101 155.093 C 108.989 162.666 98.314 183.016 84.405 177.389 M 57.073 163.961 C 56.391 163.14 55.981 161.431 56.16 160.163 C 56.415 158.363 57.121 157.858 59.378 157.858 C 62.943 157.858 64.988 160.542 63.38 163.108 C 61.944 165.398 58.637 165.846 57.073 163.961 M 85.819 162.888 C 84.348 159.661 86.282 157.137 89.901 157.557 C 91.726 157.77 92.583 158.536 92.814 160.163 C 93.519 165.136 87.849 167.344 85.819 162.888 M 69.487 127.46 C 67.837 127.038 65.036 125.937 63.262 125.012 C 59.661 123.137 51.987 115.552 51.987 113.869 C 51.987 112.21 61.039 103.801 64.987 101.792 C 67.19 100.672 70.71 100.012 74.487 100.012 C 78.264 100.012 81.784 100.672 83.987 101.792 C 87.922 103.795 96.987 112.208 96.987 113.858 C 96.987 115.418 88.008 123.881 84.474 125.654 C 80.641 127.575 73.365 128.452 69.487 127.46 M 61.558 120.787 C 59.55 118.778 59.566 116.922 61.608 114.879 C 63.628 112.86 65.837 113.238 67.604 115.904 C 68.76 117.648 68.732 118.277 67.417 120.154 C 65.597 122.753 63.727 122.955 61.558 120.787 M 81.737 121.278 C 77.374 118.737 81.529 111.972 85.987 114.358 C 88.566 115.738 88.606 119.956 86.053 121.323 C 83.751 122.555 83.933 122.557 81.737 121.278 M 94.571 73.931 C 93.223 68.913 93.933 66.361 97.237 64.347 C 100.893 62.118 107.981 61.631 107.998 63.608 C 108.004 64.295 108.288 66.545 108.629 68.608 C 109.161 71.825 108.982 72.363 107.368 72.391 C 106.333 72.409 103.156 73.229 100.307 74.213 C 95.173 75.988 95.123 75.985 94.571 73.931 M 165.065 69.458 C 162.632 69.128 160.466 68.322 160.251 67.667 C 159.74 66.112 164.692 63.589 169.882 62.759 C 173.786 62.135 173.987 62.227 173.987 64.648 C 173.987 66.049 174.26 67.906 174.594 68.776 C 175.254 70.497 173.598 70.615 165.065 69.458 M 159.987 56.318 C 159.987 52.242 161.852 50.883 169.02 49.737 L 172.987 49.102 L 172.982 52.98 L 172.977 56.858 L 166.482 58.407 L 159.987 59.956 L 159.987 56.318 M 93.77 56.336 C 93.199 52.44 95.915 50.346 102.501 49.603 L 106.987 49.098 L 106.987 53.089 L 106.987 57.079 L 102.237 57.648 C 99.625 57.96 96.755 58.5 95.859 58.847 C 94.612 59.33 94.124 58.743 93.77 56.336 M 111.987 47.342 C 111.987 44.327 112.495 43.157 114.199 42.244 C 117.619 40.414 128.912 39.99 133.487 41.52 C 137.137 42.741 137.515 43.198 137.805 46.743 C 138.106 50.404 137.991 50.584 135.805 49.881 C 130.678 48.23 119.459 48.134 115.692 49.708 L 111.987 51.256 L 111.987 47.342 M 177.987 47.915 C 177.987 44.685 178.393 44.086 181.455 42.807 C 183.362 42.01 187.652 41.358 190.987 41.358 C 194.322 41.358 198.612 42.01 200.519 42.807 C 203.57 44.082 203.987 44.691 203.987 47.874 C 203.987 51.202 203.806 51.427 201.737 50.675 C 198.778 49.6 184.242 49.632 180.737 50.721 C 178.082 51.545 177.987 51.448 177.987 47.915"
        fill="#8f979c" fill-rule="evenodd" transform="matrix(-1, 0, 0, -1, 255.999855, 255.999945)">
    </path>
</svg>