<svg xmlns="http://www.w3.org/2000/svg" viewBox="0 0 128 128">
    <path
        d="M 0.805 14.942 C 0.607 15.734 0.294 18.581 0.113 21.267 C -0.395 28.744 0.556 30.696 8.254 37.995 L 14.346 43.767 L 14.95 39.502 C 15.281 37.155 15.81 34.705 16.129 34.056 C 16.653 32.984 16.358 32.654 12.908 30.442 C 6.693 26.455 3.64 22.603 2.043 16.731 C 1.271 13.894 1.123 13.679 0.805 14.942 M 70.328 14.49 C 70.248 16.887 67.939 22.024 65.745 24.698 C 64.427 26.301 61.699 28.685 59.682 29.998 C 55.664 32.609 55.221 33.229 56.095 35.016 C 56.416 35.675 56.824 37.893 56.999 39.947 C 57.175 41.999 57.418 43.678 57.539 43.678 C 57.661 43.678 60.433 41.096 63.697 37.939 C 71.232 30.655 72.174 28.681 71.689 21.207 C 71.399 16.742 70.417 11.89 70.328 14.49 M 59.266 24.536 C 57.291 24.897 52.784 26.518 52.094 27.114 C 51.654 27.493 51.843 28.031 52.774 29.049 C 53.483 29.825 54.187 30.461 54.34 30.461 C 54.903 30.461 61.854 25.742 62.452 24.953 C 62.96 24.286 62.845 24.153 61.825 24.216 C 61.14 24.259 59.988 24.403 59.266 24.536 M 127.015 25.749 C 127.015 26.932 124.48 31.506 123.173 32.681 C 122.693 33.11 120.113 34.451 117.438 35.659 C 112.611 37.837 111.785 38.698 113.426 39.833 C 114.681 40.697 124.629 34.332 126.277 31.61 C 127.664 29.319 128.553 24.713 127.608 24.713 C 127.282 24.713 127.015 25.18 127.015 25.749 M 26.554 27.225 C 23.132 28.273 20.428 30.769 18.661 34.511 L 17.181 37.645 L 17.395 47.701 C 17.617 58.195 18.143 60.979 21.216 67.946 L 22.16 70.087 L 24.693 67.198 C 29.004 62.275 34.45 60.536 40.005 62.304 C 42.3 63.032 43.746 64.036 46.362 66.715 L 49.748 70.182 L 50.64 68.695 C 51.13 67.875 52.134 65.469 52.87 63.346 C 54.091 59.832 54.23 58.53 54.427 48.881 C 54.674 36.78 54.37 34.982 51.488 31.482 C 48.23 27.523 46.055 26.793 36.946 26.612 C 31.56 26.505 28.272 26.698 26.554 27.225 M 72.76 30.491 C 71.488 33.481 70.324 34.873 64.298 40.615 L 57.31 47.27 L 57.02 52.801 C 56.688 59.154 54.884 66.114 52.532 70.116 C 50.087 74.278 43.556 80.803 40.997 81.642 C 39.78 82.04 38.784 82.602 38.784 82.889 C 38.784 83.175 40.079 84.826 41.662 86.56 C 44.581 89.754 48.81 92.33 52.08 92.912 C 53.804 93.218 53.87 93.159 54.193 91.01 C 54.377 89.791 54.53 87.567 54.533 86.064 C 54.539 83.749 54.695 83.335 55.559 83.335 C 56.12 83.335 56.682 83.529 56.809 83.766 C 56.936 84.004 56.768 88.69 56.435 94.181 C 55.784 104.927 55.837 105.265 58.381 106.296 C 61.715 107.651 69.008 106.284 68.972 104.314 C 68.924 101.653 68.096 88.224 67.848 86.064 C 67.543 83.413 67.574 83.335 68.915 83.335 C 70.188 83.335 70.296 83.526 70.299 85.777 C 70.301 87.121 70.456 89.997 70.643 92.168 L 70.984 96.114 L 76.811 95.704 C 82.299 95.318 88.084 94.52 88.468 94.1 C 88.562 93.996 88.802 91.401 88.998 88.335 C 89.309 83.504 89.482 82.76 90.299 82.76 C 90.817 82.76 91.345 82.954 91.472 83.191 C 91.599 83.428 91.429 88.14 91.094 93.664 C 90.532 102.93 90.555 103.781 91.389 104.695 C 93.303 106.789 101.055 106.887 102.812 104.837 C 103.7 103.802 103.716 103.147 103.084 93.679 C 102.711 88.096 102.612 83.395 102.861 83.114 C 103.758 82.104 104.957 83.274 104.957 85.161 L 104.957 87.023 L 107.388 84.46 C 112.926 78.62 115.506 72.267 116.522 61.972 C 117.218 54.941 116.724 51.001 114.559 46.314 C 112.91 42.741 108.555 37.96 105.482 36.347 C 103.709 35.416 75.657 26.983 74.448 27.017 C 74.331 27.022 73.571 28.586 72.76 30.491 M 25.129 33.175 C 23.29 33.93 21.359 35.879 20.39 37.957 C 17.758 43.602 20.52 50.121 26.253 51.794 C 28.344 52.403 29.022 52.364 31.032 51.525 C 32.321 50.987 33.917 49.913 34.582 49.139 L 35.789 47.733 L 37.542 49.417 C 41.998 53.699 48.484 52.661 51.277 47.221 C 54.375 41.188 50.997 33.663 44.851 32.905 C 41.629 32.508 40.142 33.032 37.725 35.421 C 35.99 37.138 35.588 37.325 35.314 36.541 C 34.72 34.853 30.75 32.755 28.234 32.805 C 26.959 32.83 25.562 32.996 25.129 33.175 M 24.55 36.369 C 22.514 37.868 21.098 41.48 21.635 43.815 C 22.961 49.603 29.784 51.556 33.191 47.125 C 35.091 44.655 35.369 42.476 34.164 39.498 C 32.453 35.266 28.016 33.822 24.55 36.369 M 41.104 35.615 C 40.504 35.881 39.38 36.918 38.609 37.921 C 37.513 39.348 37.209 40.349 37.209 42.534 C 37.209 48.282 42.575 51.434 47.247 48.428 C 54.015 44.077 48.408 32.38 41.104 35.615 M 26.749 43.333 C 26.392 43.804 26.176 44.786 26.27 45.515 C 26.405 46.551 26.775 46.839 27.96 46.839 C 29.833 46.839 30.906 45.297 30.062 43.823 C 29.308 42.506 27.571 42.249 26.749 43.333 M 41.848 43.948 C 41.075 45.804 42.091 47.255 43.99 47.014 C 44.949 46.891 45.4 46.449 45.521 45.515 C 45.89 42.656 42.912 41.388 41.848 43.948 M 33.27 64.31 C 32.402 64.554 30.932 65.186 30 65.717 C 28.109 66.795 24.079 71.154 24.079 72.122 C 24.079 73.074 28.833 77.908 30.906 79.063 C 32.064 79.707 33.911 80.085 35.896 80.085 C 37.879 80.085 39.727 79.707 40.884 79.063 C 42.951 77.911 47.712 73.075 47.712 72.128 C 47.712 71.231 42.996 66.367 41.14 65.349 C 39.128 64.244 35.307 63.74 33.27 64.31 M 29.104 68.145 C 28.051 69.299 28.06 70.366 29.132 71.541 C 30.193 72.702 31.353 72.483 32.281 70.951 C 32.889 69.949 32.873 69.588 32.182 68.508 C 31.226 67.016 30.244 66.9 29.104 68.145 M 39.704 67.863 C 37.413 69.323 39.594 73.211 41.935 71.84 C 43.29 71.048 43.31 68.624 41.97 67.837 C 40.761 67.128 40.857 67.127 39.704 67.863 M 46.443 95.075 C 45.736 97.958 46.109 99.425 47.844 100.583 C 49.763 101.864 53.486 102.144 53.495 101.008 C 53.498 100.613 53.647 99.32 53.826 98.134 C 54.106 96.286 54.012 95.975 53.164 95.959 C 52.62 95.95 50.952 95.479 49.456 94.913 C 46.759 93.892 46.734 93.893 46.443 95.075 M 83.466 97.644 C 82.188 97.835 81.051 98.297 80.937 98.674 C 80.669 99.568 83.27 101.017 85.996 101.495 C 88.046 101.854 88.152 101.802 88.152 100.41 C 88.152 99.604 88.295 98.538 88.469 98.037 C 88.817 97.048 87.947 96.98 83.466 97.644 M 80.799 105.197 C 80.799 107.54 81.778 108.321 85.542 108.98 L 87.626 109.344 L 87.623 107.115 L 87.621 104.887 L 84.21 103.996 L 80.799 103.106 L 80.799 105.197 M 46.022 105.187 C 45.723 107.426 47.15 108.629 50.608 109.056 L 52.963 109.347 L 52.963 107.053 L 52.963 104.76 L 50.47 104.433 C 49.097 104.253 47.591 103.943 47.12 103.744 C 46.464 103.466 46.209 103.804 46.022 105.187 M 55.59 110.356 C 55.59 112.088 55.857 112.762 56.751 113.285 C 58.548 114.338 64.479 114.581 66.882 113.702 C 68.799 113 68.996 112.738 69.15 110.7 C 69.308 108.596 69.247 108.491 68.099 108.896 C 65.406 109.846 59.514 109.9 57.535 108.995 L 55.59 108.107 L 55.59 110.356 M 90.252 110.027 C 90.252 111.883 90.465 112.226 92.073 112.962 C 93.075 113.421 95.328 113.795 97.08 113.795 C 98.832 113.795 101.084 113.421 102.086 112.962 C 103.689 112.23 103.908 111.879 103.908 110.05 C 103.908 108.136 103.812 108.008 102.726 108.44 C 101.171 109.059 93.537 109.041 91.697 108.414 C 90.302 107.94 90.252 107.996 90.252 110.027"
        fill="#8f979c" fill-rule="evenodd" style=""></path>
</svg>