<svg xmlns="http://www.w3.org/2000/svg" viewBox="0 0 250 220">
    <path
        d="M 7.672 42.642 C 7.294 44.017 6.701 48.97 6.353 53.649 C 5.388 66.657 7.197 70.053 21.858 82.752 L 33.455 92.796 L 34.603 85.374 C 35.234 81.292 36.245 77.029 36.849 75.899 C 37.847 74.034 37.287 73.459 30.717 69.609 C 18.883 62.674 13.071 55.971 10.029 45.753 C 8.561 40.818 8.277 40.443 7.672 42.642 M 140.05 41.854 C 139.896 46.026 135.502 54.965 131.321 59.616 C 128.813 62.405 123.618 66.554 119.777 68.836 C 112.129 73.38 111.284 74.46 112.948 77.569 C 113.561 78.715 114.336 82.576 114.67 86.148 C 115.003 89.719 115.466 92.642 115.698 92.642 C 115.93 92.642 121.207 88.147 127.425 82.654 C 141.77 69.98 143.564 66.548 142.641 53.543 C 142.089 45.774 140.218 37.33 140.05 41.854 M 118.987 59.333 C 115.227 59.962 106.645 62.782 105.329 63.821 C 104.493 64.48 104.853 65.417 106.624 67.188 C 107.974 68.538 109.316 69.642 109.608 69.642 C 110.681 69.642 123.916 61.433 125.054 60.061 C 126.018 58.9 125.8 58.667 123.859 58.778 C 122.555 58.853 120.362 59.103 118.987 59.333 M 247.987 61.446 C 247.987 63.503 243.158 71.46 240.67 73.505 C 239.757 74.254 234.843 76.587 229.749 78.688 C 220.56 82.478 218.985 83.976 222.111 85.949 C 224.5 87.455 243.443 76.38 246.581 71.642 C 249.222 67.655 250.914 59.642 249.115 59.642 C 248.495 59.642 247.987 60.454 247.987 61.446 M 56.7 64.012 C 50.185 65.835 45.037 70.178 41.67 76.692 L 38.853 82.142 L 39.259 99.642 C 39.683 117.899 40.684 122.745 46.536 134.867 L 48.334 138.592 L 53.156 133.563 C 61.366 125.001 71.733 121.973 82.31 125.048 C 86.681 126.318 89.434 128.064 94.416 132.725 L 100.865 138.757 L 102.562 136.169 C 103.495 134.745 105.406 130.556 106.81 126.861 C 109.132 120.746 109.398 118.483 109.773 101.693 C 110.243 80.639 109.664 77.51 104.178 71.42 C 97.973 64.531 93.831 63.263 76.487 62.947 C 66.231 62.759 59.973 63.096 56.7 64.012 M 144.68 69.696 C 142.258 74.899 140.043 77.321 128.568 87.31 L 115.264 98.891 L 114.712 108.516 C 114.078 119.568 110.642 131.677 106.163 138.642 C 101.507 145.882 89.073 157.236 84.201 158.696 C 81.883 159.39 79.987 160.367 79.987 160.866 C 79.987 161.364 82.454 164.239 85.469 167.254 C 91.024 172.809 99.075 177.295 105.304 178.306 C 108.586 178.839 108.71 178.736 109.328 174.999 C 109.678 172.878 109.97 169.005 109.976 166.392 C 109.985 162.361 110.281 161.642 111.928 161.642 C 112.996 161.642 114.067 161.979 114.309 162.392 C 114.551 162.804 114.231 170.959 113.597 180.513 C 112.356 199.211 112.459 199.799 117.302 201.597 C 123.649 203.953 137.535 201.574 137.467 198.142 C 137.375 193.515 135.8 170.148 135.327 166.392 C 134.746 161.778 134.805 161.642 137.358 161.642 C 139.783 161.642 139.988 161.972 139.994 165.892 C 139.998 168.23 140.293 173.233 140.65 177.011 L 141.298 183.879 L 152.393 183.164 C 162.844 182.49 173.857 181.105 174.589 180.373 C 174.77 180.192 175.225 175.679 175.6 170.343 C 176.191 161.935 176.521 160.642 178.076 160.642 C 179.062 160.642 180.067 160.98 180.309 161.392 C 180.551 161.804 180.228 170.004 179.59 179.614 C 178.52 195.738 178.563 197.218 180.153 198.808 C 183.797 202.452 198.554 202.62 201.902 199.055 C 203.593 197.254 203.624 196.114 202.42 179.642 C 201.709 169.926 201.521 161.749 201.996 161.259 C 203.703 159.5 205.987 161.537 205.987 164.819 L 205.987 168.058 L 210.613 163.6 C 221.158 153.437 226.072 142.384 228.008 124.472 C 229.331 112.236 228.391 105.383 224.269 97.226 C 221.128 91.01 212.837 82.691 206.987 79.885 C 203.61 78.265 150.198 63.593 147.894 63.652 C 147.67 63.658 146.224 66.378 144.68 69.696 M 53.987 74.364 C 50.485 75.679 46.809 79.07 44.964 82.686 C 39.953 92.51 45.211 103.85 56.127 106.761 C 60.108 107.822 61.399 107.756 65.226 106.295 C 67.679 105.358 70.72 103.49 71.985 102.144 L 74.285 99.696 L 77.623 102.627 C 86.107 110.076 98.455 108.272 103.775 98.805 C 109.674 88.31 103.242 75.214 91.54 73.895 C 85.405 73.204 82.573 74.117 77.972 78.275 C 74.667 81.261 73.902 81.585 73.38 80.223 C 72.251 77.283 64.689 73.635 59.899 73.721 C 57.472 73.764 54.812 74.054 53.987 74.364 M 52.885 79.925 C 49.006 82.531 46.312 88.815 47.332 92.879 C 49.859 102.949 62.849 106.348 69.338 98.637 C 72.953 94.341 73.482 90.549 71.191 85.369 C 67.933 78.005 59.484 75.492 52.885 79.925 M 84.405 78.611 C 83.261 79.074 81.123 80.88 79.655 82.624 C 77.567 85.107 76.987 86.849 76.987 90.648 C 76.987 100.651 87.205 106.136 96.101 100.907 C 108.989 93.334 98.314 72.984 84.405 78.611 M 57.073 92.039 C 56.391 92.86 55.981 94.569 56.16 95.837 C 56.415 97.637 57.121 98.142 59.378 98.142 C 62.943 98.142 64.988 95.458 63.38 92.892 C 61.944 90.602 58.637 90.154 57.073 92.039 M 85.819 93.112 C 84.348 96.339 86.282 98.863 89.901 98.443 C 91.726 98.23 92.583 97.464 92.814 95.837 C 93.519 90.864 87.849 88.656 85.819 93.112 M 69.487 128.54 C 67.837 128.962 65.036 130.063 63.262 130.988 C 59.661 132.863 51.987 140.448 51.987 142.131 C 51.987 143.79 61.039 152.199 64.987 154.208 C 67.19 155.328 70.71 155.988 74.487 155.988 C 78.264 155.988 81.784 155.328 83.987 154.208 C 87.922 152.205 96.987 143.792 96.987 142.142 C 96.987 140.582 88.008 132.119 84.474 130.346 C 80.641 128.425 73.365 127.548 69.487 128.54 M 61.558 135.213 C 59.55 137.222 59.566 139.078 61.608 141.121 C 63.628 143.14 65.837 142.762 67.604 140.096 C 68.76 138.352 68.732 137.723 67.417 135.846 C 65.597 133.247 63.727 133.045 61.558 135.213 M 81.737 134.722 C 77.374 137.263 81.529 144.028 85.987 141.642 C 88.566 140.262 88.606 136.044 86.053 134.677 C 83.751 133.445 83.933 133.443 81.737 134.722 M 94.571 182.069 C 93.223 187.087 93.933 189.639 97.237 191.653 C 100.893 193.882 107.981 194.369 107.998 192.392 C 108.004 191.705 108.288 189.455 108.629 187.392 C 109.161 184.175 108.982 183.637 107.368 183.609 C 106.333 183.591 103.156 182.771 100.307 181.787 C 95.173 180.012 95.123 180.015 94.571 182.069 M 165.065 186.542 C 162.632 186.872 160.466 187.678 160.251 188.333 C 159.74 189.888 164.692 192.411 169.882 193.241 C 173.786 193.865 173.987 193.773 173.987 191.352 C 173.987 189.951 174.26 188.094 174.594 187.224 C 175.254 185.503 173.598 185.385 165.065 186.542 M 159.987 199.682 C 159.987 203.758 161.852 205.117 169.02 206.263 L 172.987 206.898 L 172.982 203.02 L 172.977 199.142 L 166.482 197.593 L 159.987 196.044 L 159.987 199.682 M 93.77 199.664 C 93.199 203.56 95.915 205.654 102.501 206.397 L 106.987 206.902 L 106.987 202.911 L 106.987 198.921 L 102.237 198.352 C 99.625 198.04 96.755 197.5 95.859 197.153 C 94.612 196.67 94.124 197.257 93.77 199.664 M 111.987 208.658 C 111.987 211.673 112.495 212.843 114.199 213.756 C 117.619 215.586 128.912 216.01 133.487 214.48 C 137.137 213.259 137.515 212.802 137.805 209.257 C 138.106 205.596 137.991 205.416 135.805 206.119 C 130.678 207.77 119.459 207.866 115.692 206.292 L 111.987 204.744 L 111.987 208.658 M 177.987 208.085 C 177.987 211.315 178.393 211.914 181.455 213.193 C 183.362 213.99 187.652 214.642 190.987 214.642 C 194.322 214.642 198.612 213.99 200.519 213.193 C 203.57 211.918 203.987 211.309 203.987 208.126 C 203.987 204.798 203.806 204.573 201.737 205.325 C 198.778 206.4 184.242 206.368 180.737 205.279 C 178.082 204.455 177.987 204.552 177.987 208.085"
        fill="#8f979c" fill-rule="evenodd">
    </path>
</svg>