<svg viewBox="0 0 1920.0122 1948" xmlns="http://www.w3.org/2000/svg">
    <path fill="#8f979c"
        d="M593.0061 898c-104 3-198 48-265 128h-134c-100 0-194-48-194-159 0-81-3-353 124-353 21 0 125 85 260 85 46 0 90-8 133-23-3 22-5 44-5 66 0 91 29 181 81 256z m1071 637c0 162-107 259-267 259h-874c-160 0-267-97-267-259 0-226 53-573 346-573 34 0 158 139 358 139s324-139 358-139c293 0 346 347 346 573z m-1024-1277c0 141-115 256-256 256s-256-115-256-256 115-256 256-256 256 115 256 256z m704 384c0 212-172 384-384 384s-384-172-384-384 172-384 384-384 384 172 384 384z m576 225c0 111-94 159-194 159h-134c-67-80-161-125-265-128 52-75 81-165 81-256 0-22-2-44-5-66 43 15 87 23 133 23 135 0 239-85 260-85 127 0 124 272 124 353z m-128-609c0 141-115 256-256 256s-256-115-256-256 115-256 256-256 256 115 256 256z" />
</svg>
