<svg viewBox="0 0 1536 1948" xmlns="http://www.w3.org/2000/svg">
    <path fill="#497ba7"
        d="M1201 786c141 41 335 180 335 635 0 206-153 373-341 373h-854c-188 0-341-167-341-373 0-455 194-594 335-635-50-79-79-172-79-272 0-282 230-512 512-512s512 230 512 512c0 100-29 193-79 272z m-433-656c-212 0-384 172-384 384s172 384 384 384 384-172 384-384-172-384-384-384z m427 1536c117 0 213-109 213-245 0-315-106-512-304-522-90 79-207 127-336 127s-246-48-336-127c-198 10-304 207-304 522 0 136 96 245 213 245h854z" />
</svg>
